<?xml version="1.0" standalone="no"?>
<!DOCTYPE svg PUBLIC "-//W3C//DTD SVG 20010904//EN"
 "http://www.w3.org/TR/2001/REC-SVG-20010904/DTD/svg10.dtd">
<svg version="1.0" xmlns="http://www.w3.org/2000/svg"
 width="203.000000pt" height="200.000000pt" viewBox="0 0 203.000000 200.000000"
 preserveAspectRatio="xMidYMid meet">

<g transform="translate(0.000000,200.000000) scale(0.100000,-0.100000)"
fill="#000000" stroke="none">
<path d="M863 1969 c-120 -18 -305 -95 -403 -168 -170 -126 -294 -286 -359
-466 -176 -487 38 -1014 502 -1235 163 -78 231 -93 427 -93 139 0 177 3 244
21 298 82 546 293 663 564 102 235 110 500 22 742 -105 291 -357 523 -664 612
-73 21 -116 27 -230 29 -77 2 -168 0 -202 -6z m257 -49 c459 -48 805 -404 844
-870 17 -193 -51 -429 -171 -598 -46 -65 -186 -212 -202 -212 -5 0 -20 18 -34
39 l-26 40 57 6 c94 10 106 21 35 30 -35 4 -63 10 -63 14 0 4 41 24 91 46 50
22 84 41 76 43 -7 2 -56 -6 -107 -18 -115 -25 -133 -25 -105 -4 11 9 50 33 88
55 37 22 67 42 67 44 0 5 -91 -29 -121 -45 -10 -6 -22 -10 -28 -10 -26 0 -6
30 72 109 80 83 69 81 -40 -6 -73 -58 -83 -41 -25 45 64 95 69 112 15 58 l-48
-49 -7 39 c-6 34 1 85 18 129 4 9 0 12 -13 9 -17 -5 -18 2 -15 75 3 70 0 88
-22 133 -14 29 -31 61 -38 70 -10 14 -9 21 9 40 12 13 32 46 45 73 21 46 23
63 21 195 l-2 145 -38 33 c-58 52 -92 65 -173 70 -61 3 -86 0 -125 -16 -28
-11 -62 -23 -76 -26 -31 -7 -79 -52 -79 -75 0 -9 -12 -27 -27 -41 -32 -30 -53
-78 -53 -120 0 -29 -1 -30 -38 -24 -82 13 -271 -31 -395 -91 -30 -15 -77 -46
-104 -70 -48 -42 -60 -58 -139 -179 -44 -69 -94 -210 -94 -270 -1 -55 -13 -32
-35 64 -22 96 -22 279 -1 377 87 401 420 704 815 742 47 5 87 9 87 10 1 0 48
-4 104 -9z m241 -315 c59 -21 98 -53 79 -65 -12 -8 -12 -10 2 -15 20 -8 30
-59 20 -105 -8 -35 -8 -35 -15 19 -3 29 -12 59 -18 67 -22 27 -117 47 -203 42
-75 -5 -78 -4 -44 8 20 7 59 16 85 20 l48 7 -40 18 -40 18 41 1 c22 0 60 -7
85 -15z m-307 -356 l-88 -134 -12 74 c-7 40 -17 78 -22 83 -16 16 -52 -10 -70
-50 l-17 -37 -3 42 -3 43 -58 -6 c-39 -5 -61 -3 -65 5 -5 7 2 11 20 11 15 0
63 10 106 21 91 25 99 21 130 -49 l20 -43 30 48 c30 48 109 136 115 129 2 -2
-35 -64 -83 -137z m187 101 c5 0 9 7 9 16 0 19 2 18 140 -20 68 -18 86 -27 88
-43 4 -24 -36 -133 -48 -133 -5 0 -51 14 -102 32 l-92 31 -72 -79 -73 -79 23
-23 c16 -17 44 -27 95 -35 56 -10 69 -15 59 -25 -30 -30 -137 -6 -192 44 l-37
34 43 53 c54 64 108 146 108 164 0 25 34 99 38 81 2 -10 8 -18 13 -18z m-605
-108 c15 -10 56 -92 85 -172 23 -62 24 -63 27 -31 2 18 -4 67 -13 108 -9 41
-15 76 -13 78 2 2 18 -18 36 -45 42 -64 65 -165 59 -254 -4 -54 -2 -65 7 -50
6 11 11 69 11 142 0 98 2 119 12 106 25 -34 36 -127 29 -254 -3 -69 -9 -138
-12 -155 -10 -55 15 -5 43 85 32 105 42 90 14 -21 -15 -58 -18 -86 -10 -95 7
-9 3 -19 -17 -39 -22 -22 -25 -32 -20 -63 4 -20 9 -55 13 -76 l5 -40 -33 29
c-19 15 -79 50 -134 76 -55 26 -111 58 -125 69 l-25 22 28 -5 c33 -5 34 -1 5
24 l-23 18 50 1 50 1 -55 18 -55 17 30 17 30 16 -32 1 c-18 0 -33 2 -33 5 0 3
15 19 33 35 l32 30 -28 -10 c-45 -16 -49 -12 -27 30 25 50 25 55 -2 36 -12 -9
-25 -16 -29 -16 -3 0 -5 33 -3 73 3 60 2 65 -5 32 -16 -71 -29 -94 -56 -101
-23 -6 -26 -11 -25 -43 3 -50 2 -53 -19 -78 l-19 -22 -63 34 c-40 22 -78 35
-102 35 -23 0 -40 5 -43 14 -7 19 24 122 41 136 8 7 26 36 39 66 33 71 103
144 175 183 32 17 64 31 70 31 19 0 12 -45 -14 -96 -23 -44 -23 -47 -4 -24 12
14 33 49 46 78 24 50 42 62 69 44z m682 -54 c39 -13 72 -26 72 -29 0 -4 -23
-35 -52 -68 -57 -66 -55 -66 -148 -32 -70 26 -54 61 17 37 18 -6 22 -4 17 8
-5 12 -2 15 10 10 12 -5 15 -2 10 11 -6 15 -3 16 17 10 37 -12 82 -11 86 1 2
6 -23 21 -57 34 -33 12 -60 26 -60 31 0 13 7 12 88 -13z m70 -168 c-4 -44 8
-54 18 -15 3 14 10 22 15 19 12 -7 12 -96 -1 -128 -7 -20 -6 -24 5 -19 20 7
20 -27 0 -74 -18 -44 -19 -40 3 -45 16 -5 19 -17 21 -92 0 -48 2 -90 2 -94 5
-28 -3 -62 -14 -62 -7 0 -23 -13 -35 -30 -24 -32 -18 -39 14 -15 36 27 39 15
4 -16 -32 -28 -33 -30 -10 -25 73 17 76 18 57 4 -56 -39 -55 -39 18 -34 72 6
71 4 -5 -28 l-35 -14 30 -1 c59 -2 58 -18 -2 -30 -39 -7 -59 -8 -61 -1 -2 5
-13 10 -25 10 -20 0 -20 0 -1 15 18 14 18 14 -10 15 -21 0 -27 4 -22 15 6 18
2 19 -25 4 -17 -9 -21 -7 -26 10 -5 20 -6 20 -18 4 -13 -17 -14 -17 -32 0 -26
23 -31 22 -26 -7 4 -21 2 -23 -24 -19 -27 4 -27 4 -9 -11 11 -9 24 -16 29 -16
4 0 5 -4 2 -10 -3 -5 -42 -10 -86 -10 -46 0 -79 4 -79 10 0 6 6 10 14 10 32 0
25 21 -11 37 -34 15 -35 17 -15 21 16 2 22 8 18 19 -5 13 0 14 31 8 21 -4 50
-13 66 -21 16 -9 34 -13 40 -11 13 4 -53 40 -93 51 -18 4 -33 22 -53 63 l-28
58 36 -37 c19 -21 38 -38 40 -38 3 0 3 12 -1 28 -6 26 -6 26 9 7 22 -27 21
-15 -4 67 -11 39 -19 72 -17 74 3 2 23 -38 47 -89 l42 -92 -6 78 c-4 42 -5 77
-2 77 2 0 15 -28 27 -62 13 -35 27 -67 31 -72 12 -14 49 75 40 93 -5 9 -11 32
-14 52 -5 32 1 47 44 113 27 43 49 79 49 82 0 2 -11 -3 -25 -12 -36 -23 -40
-13 -15 36 12 23 18 40 13 38 -51 -25 -104 -46 -128 -52 -26 -6 -23 -2 20 27
56 39 130 114 147 152 17 38 31 30 26 -15z m-306 -9 c13 -11 39 -25 58 -33
l33 -14 -51 -33 c-60 -38 -77 -37 -140 9 -45 32 -55 51 -22 43 11 -3 20 -1 20
5 0 8 55 41 71 42 4 0 17 -9 31 -19z m-702 -272 c19 -19 33 -38 32 -42 -1 -5
7 -6 18 -2 13 4 35 -2 63 -19 75 -45 72 -40 43 -78 -36 -48 -33 -59 5 -20 38
39 44 39 91 7 21 -14 49 -30 63 -35 18 -7 25 -17 26 -37 0 -27 1 -28 11 -5 6
12 16 22 23 22 20 0 89 -51 165 -123 60 -56 70 -70 60 -82 -18 -22 -27 -19
-68 22 l-37 38 -3 -29 c-3 -25 -6 -28 -33 -22 -24 5 -29 2 -29 -14 0 -24 -8
-25 -31 -4 -17 15 -19 14 -25 -10 -8 -33 -27 -33 -49 0 -9 14 -29 30 -45 36
-18 6 -32 20 -39 39 -5 16 -15 29 -20 29 -6 0 -20 9 -31 20 -19 19 -22 19 -44
5 -22 -15 -26 -14 -61 10 -21 14 -41 25 -46 25 -4 0 -13 16 -19 34 -7 23 -16
33 -25 30 -8 -4 -15 5 -19 24 -5 20 -17 33 -39 43 -19 8 -33 23 -35 35 -2 12
-14 26 -28 33 -21 9 -44 46 -44 71 0 5 8 16 17 25 12 13 29 16 67 13 42 -4 57
-11 86 -39z m-75 -259 c19 -37 29 -90 16 -90 -12 0 -91 109 -121 169 l-22 44
57 -49 c31 -27 63 -60 70 -74z m753 -25 c-7 -8 -38 23 -38 38 0 6 10 2 22 -10
12 -13 19 -25 16 -28z"/>
<path d="M1356 775 c-3 -9 -6 -22 -5 -28 0 -7 5 -1 10 12 5 13 8 26 5 28 -2 2
-6 -3 -10 -12z"/>
<path d="M1297 533 c-4 -3 -7 -11 -7 -17 0 -6 5 -5 12 2 6 6 9 14 7 17 -3 3
-9 2 -12 -2z"/>
<path d="M1356 483 c-6 -14 -5 -15 5 -6 7 7 10 15 7 18 -3 3 -9 -2 -12 -12z"/>
</g>
</svg>
