<?xml version="1.0" standalone="no"?>
<!DOCTYPE svg PUBLIC "-//W3C//DTD SVG 20010904//EN"
 "http://www.w3.org/TR/2001/REC-SVG-20010904/DTD/svg10.dtd">
<svg version="1.0" xmlns="http://www.w3.org/2000/svg"
 width="539.000000pt" height="401.000000pt" viewBox="0 0 539.000000 401.000000"
 preserveAspectRatio="xMidYMid meet">

<g transform="translate(0.000000,401.000000) scale(0.100000,-0.100000)"
fill="#000000" stroke="none">
<path d="M1160 3921 l25 -7 5 -199 c3 -121 8 -191 13 -177 10 27 19 28 42 2
27 -30 80 -26 115 8 92 93 0 297 -101 223 l-29 -22 0 91 0 90 -47 -1 c-37 -1
-42 -3 -23 -8z m159 -160 c25 -25 35 -79 28 -143 -10 -85 -56 -113 -97 -60
-19 24 -21 37 -18 105 3 68 6 82 27 98 29 24 36 24 60 0z"/>
<path d="M2784 3895 c-4 -9 -2 -21 4 -27 16 -16 47 -5 47 17 0 26 -42 34 -51
10z"/>
<path d="M2970 3895 c-11 -13 -11 -19 3 -32 21 -21 49 -9 45 19 -4 28 -30 35
-48 13z"/>
<path d="M1454 3779 c-3 -5 4 -9 15 -9 20 0 21 -6 21 -115 0 -111 -1 -116 -22
-125 -17 -6 -7 -9 42 -9 49 0 59 3 43 9 -21 9 -23 16 -23 82 0 81 27 152 60
161 21 5 42 -14 22 -21 -21 -7 -14 -42 8 -42 29 0 42 32 24 58 -21 30 -50 27
-85 -7 l-29 -29 0 27 c0 24 -4 27 -35 28 -19 1 -38 -3 -41 -8z"/>
<path d="M1743 3780 c-41 -17 -43 -90 -3 -90 25 0 26 25 3 40 -17 9 -16 11 6
30 28 24 40 25 69 4 16 -11 22 -25 22 -53 l0 -37 -59 -12 c-66 -14 -91 -35
-91 -80 0 -41 23 -62 70 -62 29 0 44 6 57 24 l18 23 10 -21 c7 -14 22 -22 43
-24 17 -2 32 -2 32 0 0 2 4 18 9 36 11 38 5 43 -9 6 -19 -49 -35 -21 -38 67
-3 111 -7 126 -42 144 -32 17 -64 18 -97 5z m97 -147 c0 -16 -9 -43 -20 -60
-15 -26 -27 -33 -50 -33 -28 0 -30 2 -30 38 0 45 8 58 40 71 45 18 60 13 60
-16z"/>
<path d="M1944 3778 c-3 -4 3 -8 14 -8 15 0 30 -27 72 -125 28 -69 55 -125 59
-125 3 0 24 53 46 118 31 88 46 119 63 127 35 15 26 24 -23 21 -43 -3 -78 -16
-42 -16 23 0 22 -32 -3 -100 -12 -30 -23 -62 -26 -70 -4 -9 -19 17 -40 65 -38
90 -40 105 -19 105 8 0 15 4 15 9 0 11 -109 10 -116 -1z"/>
<path d="M2284 3767 c-22 -19 -26 -29 -20 -50 5 -20 13 -27 31 -27 28 0 35 27
10 36 -22 9 -18 33 8 45 15 7 31 7 50 0 24 -9 27 -16 27 -54 0 -44 0 -45 -40
-51 -60 -9 -87 -25 -101 -59 -10 -24 -10 -34 2 -56 20 -35 86 -42 114 -11 23
25 31 25 38 0 4 -15 14 -20 36 -20 33 0 52 23 50 62 -1 18 -3 17 -10 -9 -5
-18 -16 -33 -23 -33 -10 0 -15 25 -18 101 -4 96 -5 103 -31 125 -37 31 -87 32
-123 1z m108 -144 c-7 -58 -29 -85 -66 -81 -26 2 -32 8 -34 31 -4 35 20 74 50
80 53 10 54 9 50 -30z"/>
<path d="M2536 3781 c-3 -5 2 -11 12 -13 15 -4 17 -17 14 -121 -3 -99 -6 -116
-20 -120 -9 -3 10 -5 43 -5 33 0 52 2 43 5 -16 4 -18 17 -18 98 0 89 1 94 30
125 34 37 52 32 43 -11 -5 -28 -4 -30 18 -27 31 4 39 46 13 65 -27 19 -52 16
-79 -12 -23 -22 -25 -23 -25 -5 0 11 -3 20 -7 21 -5 0 -20 3 -35 5 -14 2 -29
0 -32 -5z"/>
<path d="M2764 3779 c-3 -5 1 -9 10 -9 20 0 21 -7 18 -129 -3 -93 -6 -110 -20
-114 -9 -3 10 -5 43 -5 33 0 52 2 43 5 -15 4 -18 21 -20 131 l-3 127 -32 2
c-18 1 -35 -3 -39 -8z"/>
<path d="M2924 3778 c-3 -4 6 -8 19 -8 32 0 37 -26 37 -174 -1 -171 -21 -227
-70 -196 -12 8 -13 13 -2 30 18 29 15 42 -10 38 -29 -4 -36 -43 -12 -69 42
-46 118 -2 129 74 3 23 5 103 3 177 l-3 135 -43 1 c-24 0 -45 -4 -48 -8z"/>
<path d="M3148 3779 c-45 -26 -46 -89 -2 -89 27 0 34 27 9 36 -23 9 -18 33 10
44 37 14 72 -3 77 -37 6 -48 -1 -61 -40 -67 -63 -11 -90 -26 -103 -58 -10 -26
-10 -35 2 -57 21 -37 81 -42 116 -9 20 19 25 20 33 8 5 -8 10 -18 10 -22 0 -5
13 -8 30 -8 31 0 51 23 49 57 0 12 -4 9 -11 -9 -5 -16 -16 -28 -23 -28 -10 0
-14 26 -17 101 -3 96 -4 102 -31 125 -30 25 -78 31 -109 13z m89 -166 c-6 -52
-28 -76 -67 -71 -19 2 -26 10 -28 30 -6 49 28 86 82 87 16 1 18 -5 13 -46z"/>
<path d="M3545 3780 c-3 -6 1 -10 9 -10 14 0 16 -18 16 -119 0 -105 -2 -120
-17 -124 -10 -3 9 -5 42 -5 33 0 52 2 43 5 -16 4 -18 17 -18 94 0 123 19 158
80 149 25 -4 30 -22 30 -128 0 -97 -1 -103 -22 -112 -17 -6 -7 -9 42 -9 49 0
59 3 43 9 -22 9 -23 15 -23 108 0 85 -3 103 -21 126 -25 32 -66 34 -102 6 -31
-24 -35 -25 -33 -4 1 19 -59 31 -69 14z"/>
<path d="M3886 3769 c-55 -43 -21 -101 84 -142 42 -17 56 -28 58 -45 11 -79
-104 -64 -138 18 -16 39 -24 31 -25 -26 -2 -46 8 -66 19 -39 5 14 9 14 35 0
39 -19 95 -19 115 1 47 47 22 105 -61 139 -28 11 -57 26 -67 34 -41 34 3 82
57 62 15 -6 36 -25 47 -43 l20 -33 0 45 c0 27 -4 40 -8 32 -7 -10 -14 -10 -38
3 -39 20 -66 19 -98 -6z"/>
<path d="M3404 3566 c-11 -28 4 -48 33 -44 22 2 28 8 28 28 0 20 -6 26 -28 28
-18 2 -29 -2 -33 -12z"/>
<path d="M2532 3259 c-81 -12 -234 -67 -317 -114 -308 -172 -505 -509 -505
-865 0 -603 533 -1063 1135 -979 104 14 192 42 300 96 255 127 437 352 517
640 31 113 31 373 0 485 -98 354 -350 613 -697 714 -74 21 -116 27 -230 29
-77 2 -168 -1 -203 -6z m297 -54 c80 -8 205 -47 296 -92 254 -129 435 -368
494 -658 48 -238 -11 -510 -156 -713 -45 -63 -188 -212 -203 -212 -4 0 -19 18
-33 39 l-26 40 57 6 c93 10 106 21 34 29 -34 4 -62 10 -62 14 0 4 41 25 91 47
50 22 92 43 95 46 2 4 -47 -4 -109 -17 -168 -36 -171 -33 -34 47 37 22 67 42
67 44 0 2 -34 -10 -76 -26 -41 -16 -77 -29 -80 -29 -18 0 8 37 79 109 81 84
76 83 -42 -6 -77 -58 -80 -44 -10 62 27 42 48 79 46 81 -2 2 -23 -16 -46 -42
-24 -25 -44 -44 -46 -42 -12 13 -12 94 0 129 18 51 19 48 -2 43 -16 -5 -18 3
-15 75 3 70 0 88 -22 133 -14 29 -31 61 -38 70 -10 14 -9 21 9 40 12 13 32 46
45 73 21 46 23 63 21 195 l-2 145 -38 33 c-58 52 -92 65 -173 70 -61 3 -86 0
-125 -16 -28 -11 -63 -23 -78 -27 -32 -7 -77 -50 -77 -74 0 -9 -14 -29 -30
-45 -29 -28 -50 -79 -50 -121 0 -18 -7 -20 -93 -22 -105 -1 -223 -32 -335 -86
-78 -37 -174 -127 -216 -202 -16 -27 -37 -59 -46 -70 -26 -29 -80 -196 -80
-247 -1 -56 -13 -35 -35 62 -22 96 -22 279 -1 378 74 340 313 602 645 706 86
27 225 46 296 40 22 -2 69 -6 104 -9z m197 -310 c62 -19 104 -52 84 -65 -12
-8 -12 -10 2 -15 20 -8 28 -49 19 -100 l-7 -40 -7 54 c-3 29 -11 59 -17 67
-23 27 -108 46 -192 42 -70 -3 -76 -2 -51 9 15 7 51 15 78 19 l50 7 -40 18
-40 18 36 1 c19 0 58 -7 85 -15z m-212 -217 c-4 -7 -46 -71 -93 -142 l-85
-130 -12 73 c-7 41 -17 78 -22 83 -16 16 -52 -10 -70 -50 l-17 -37 -3 43 -3
44 -49 -7 c-29 -4 -56 -2 -67 4 -16 9 -14 10 11 11 16 0 65 10 108 21 91 25
101 21 133 -52 l18 -40 30 48 c16 26 50 69 75 96 47 48 59 57 46 35z m97 -38
c5 0 9 7 9 16 0 19 2 18 140 -20 68 -18 86 -27 88 -43 4 -24 -36 -133 -48
-133 -5 0 -51 14 -102 32 l-92 31 -72 -79 -73 -79 23 -23 c16 -17 44 -27 95
-35 56 -10 69 -15 59 -25 -31 -31 -150 -1 -204 53 l-25 25 39 45 c40 46 112
158 112 176 0 5 8 28 17 51 12 28 19 37 21 26 2 -10 8 -18 13 -18z m-572 -157
c15 -32 39 -87 52 -123 24 -64 24 -64 27 -29 2 20 -4 66 -12 103 -22 91 -20
96 13 50 46 -62 66 -136 66 -241 0 -88 1 -91 13 -55 9 24 12 70 10 135 -2 53
0 97 4 97 28 0 44 -241 25 -385 -10 -79 4 -58 40 55 32 105 42 90 14 -21 -15
-58 -18 -86 -10 -95 7 -9 3 -19 -17 -39 -22 -22 -25 -32 -20 -63 4 -20 9 -55
13 -76 l5 -40 -33 29 c-19 15 -79 50 -134 76 -55 26 -111 58 -125 69 l-25 22
35 -6 35 -6 -30 25 -30 24 50 2 50 1 -55 18 -55 17 30 14 30 13 -32 4 c-18 2
-33 5 -33 8 0 2 15 18 33 35 23 22 26 29 12 24 -59 -21 -59 -21 -36 23 26 52
26 57 -1 38 -12 -9 -25 -16 -29 -16 -3 0 -5 33 -3 73 l4 72 -16 -64 c-14 -55
-20 -65 -46 -75 -25 -9 -29 -16 -28 -46 3 -49 2 -52 -20 -78 -19 -23 -20 -24
-47 -5 -48 32 -102 53 -138 53 -18 0 -37 4 -40 10 -9 14 21 119 39 139 9 10
29 45 46 78 17 33 52 81 79 106 46 43 136 97 162 97 19 0 3 -68 -27 -114 -23
-35 -24 -38 -5 -22 12 11 35 48 52 83 25 52 34 63 54 63 20 0 30 -11 54 -57z
m648 -5 c40 -12 73 -25 73 -29 0 -4 -23 -35 -52 -68 -57 -66 -55 -66 -148 -32
-70 26 -54 61 17 37 18 -6 22 -4 17 8 -5 12 -2 15 10 10 12 -4 15 -2 10 9 -4
11 1 15 20 13 14 0 26 -3 26 -6 0 -3 12 -6 27 -5 47 0 35 22 -27 45 -33 12
-60 26 -60 31 0 12 5 12 87 -13z m71 -168 c-4 -44 8 -54 18 -15 3 14 10 22 15
19 12 -7 12 -96 -1 -128 -7 -20 -6 -24 5 -19 22 8 19 -30 -5 -77 l-20 -39 23
-3 c18 -2 22 -10 23 -38 0 -19 2 -62 4 -95 4 -92 1 -115 -13 -115 -7 0 -23
-13 -35 -30 -24 -32 -18 -39 14 -15 36 27 39 14 4 -17 -32 -28 -33 -30 -10
-24 76 19 77 19 43 -4 -18 -12 -33 -24 -33 -27 0 -3 28 -2 63 1 68 8 69 -3 2
-25 l-40 -13 38 -6 c55 -10 53 -15 -10 -30 -42 -9 -58 -9 -61 -1 -2 6 -13 11
-25 11 -22 1 -22 1 -3 15 19 14 19 15 -8 15 -21 0 -27 4 -22 15 6 18 2 19 -25
4 -17 -9 -21 -7 -26 10 -5 20 -6 20 -18 4 -13 -17 -14 -17 -32 0 -26 23 -31
22 -26 -7 4 -21 2 -23 -24 -19 -27 4 -27 4 -9 -11 11 -9 23 -16 28 -16 4 0 8
-4 8 -10 0 -6 -35 -10 -85 -10 -50 0 -85 4 -85 10 0 6 6 10 14 10 33 0 24 22
-16 39 -40 18 -41 20 -14 20 21 1 27 5 22 16 -7 20 3 19 75 -5 34 -12 63 -19
66 -16 6 6 -63 41 -97 50 -18 4 -33 22 -53 63 l-28 58 36 -37 c19 -21 38 -38
40 -38 3 0 3 12 -1 28 -6 26 -6 26 9 7 22 -28 21 -13 -7 79 -30 97 -21 89 34
-29 l41 -90 -6 75 c-6 82 2 84 30 5 10 -27 22 -54 26 -59 12 -14 49 75 40 93
-5 9 -11 32 -14 52 -5 32 1 47 44 113 27 43 49 79 49 82 0 2 -11 -3 -25 -12
-35 -23 -40 -13 -15 35 11 23 18 41 15 41 -3 0 -27 -11 -53 -24 -26 -13 -60
-26 -77 -30 -26 -6 -23 -3 20 27 56 39 130 114 147 152 17 38 31 30 26 -15z
m-249 -42 l34 -14 -51 -33 c-60 -38 -77 -37 -140 9 -41 29 -57 55 -28 44 8 -3
25 4 37 15 13 12 29 21 36 21 7 0 13 5 13 11 0 5 15 -1 33 -15 17 -13 47 -30
66 -38z m-759 -239 c19 -19 33 -38 32 -42 -1 -5 7 -6 18 -2 13 4 35 -2 63 -19
75 -45 72 -40 43 -78 -36 -48 -33 -59 5 -20 38 39 44 39 91 7 21 -14 49 -30
63 -35 18 -7 25 -17 26 -37 0 -27 1 -28 11 -5 6 12 16 22 23 22 20 0 90 -52
165 -123 58 -56 69 -71 59 -83 -16 -20 -22 -18 -65 23 l-39 37 -3 -28 c-3 -25
-7 -28 -33 -22 -24 5 -29 2 -29 -14 0 -24 -8 -25 -31 -4 -17 15 -19 14 -25
-10 -8 -33 -27 -33 -49 0 -9 14 -29 30 -45 36 -18 6 -32 20 -39 39 -5 16 -15
29 -20 29 -6 0 -20 9 -31 20 -19 19 -22 19 -44 5 -22 -15 -27 -14 -70 12 -29
18 -50 39 -58 60 -6 18 -17 29 -24 26 -7 -2 -15 7 -18 25 -5 20 -17 33 -39 43
-19 8 -33 23 -35 35 -2 12 -14 26 -28 33 -21 9 -44 46 -44 71 0 5 8 16 17 25
12 13 29 16 67 13 42 -4 57 -11 86 -39z m-75 -259 c19 -37 29 -90 16 -90 -12
0 -91 109 -121 169 l-22 44 57 -49 c31 -27 63 -60 70 -74z m755 -21 c0 -16
-28 3 -33 23 -5 19 -5 19 14 2 10 -9 19 -21 19 -25z m-23 -35 c-3 -3 -12 -4
-19 -1 -8 3 -5 6 6 6 11 1 17 -2 13 -5z"/>
<path d="M3026 2065 c-3 -9 -6 -22 -5 -28 0 -7 5 -1 10 12 5 13 8 26 5 28 -2
2 -6 -3 -10 -12z"/>
<path d="M2965 1819 c-4 -6 -5 -12 -2 -15 2 -3 7 2 10 11 7 17 1 20 -8 4z"/>
<path d="M3026 1773 c-6 -14 -5 -15 5 -6 7 7 10 15 7 18 -3 3 -9 -2 -12 -12z"/>
<path d="M2939 1084 c-18 -20 -24 -36 -23 -71 1 -58 25 -81 127 -123 60 -25
78 -37 83 -56 14 -56 -18 -94 -81 -94 -45 0 -115 79 -115 130 0 11 -4 20 -10
20 -6 0 -10 -31 -10 -74 0 -41 5 -78 10 -81 6 -3 10 3 10 14 0 26 11 26 52 1
81 -49 178 -6 178 79 0 55 -28 83 -123 122 -57 23 -81 38 -87 55 -18 45 18 94
69 94 29 0 81 -48 102 -94 l18 -41 0 68 c1 60 -10 88 -22 55 -3 -10 -12 -9
-35 5 -47 27 -113 23 -143 -9z"/>
<path d="M3595 1100 c-3 -6 3 -10 14 -10 19 0 21 -6 21 -77 0 -73 -1 -75 -18
-60 -28 25 -74 21 -102 -8 -18 -19 -25 -40 -28 -85 -4 -53 -1 -64 22 -95 31
-40 76 -47 108 -18 17 15 18 15 18 0 0 -13 9 -17 43 -16 23 1 32 4 20 6 -23 4
-23 6 -23 184 0 136 -3 179 -12 180 -7 0 -23 2 -35 5 -12 2 -25 -1 -28 -6z
m19 -162 c11 -15 16 -45 16 -88 0 -74 -18 -110 -54 -110 -39 0 -51 26 -51 110
0 84 12 110 51 110 12 0 30 -10 38 -22z"/>
<path d="M1705 1090 c3 -5 15 -10 26 -10 17 0 19 -8 21 -97 1 -54 3 -118 4
-143 1 -63 -5 -80 -35 -93 l-26 -11 32 -4 c18 -2 50 -2 70 0 l38 4 -27 12 -28
12 0 119 c0 66 -3 126 -6 135 -3 9 -2 16 4 16 5 0 54 -70 108 -155 55 -85 105
-155 111 -155 10 0 13 42 13 175 l0 175 25 10 c40 15 30 20 -41 20 -41 0 -63
-4 -59 -10 3 -5 14 -10 24 -10 13 0 20 -10 25 -37 8 -53 8 -223 -1 -223 -5 1
-46 63 -93 140 l-85 139 -53 1 c-33 0 -51 -4 -47 -10z"/>
<path d="M2630 1075 c-15 -17 -5 -35 20 -35 22 0 33 23 17 39 -15 15 -22 14
-37 -4z"/>
<path d="M2147 959 c-26 -15 -47 -63 -47 -109 0 -74 39 -119 103 -120 96 0
136 141 62 216 -26 26 -85 32 -118 13z m93 -14 c7 -8 15 -46 17 -83 5 -84 -9
-116 -55 -120 -29 -3 -34 1 -47 32 -19 45 -19 107 -1 151 12 29 20 35 44 35
16 0 35 -7 42 -15z"/>
<path d="M2338 953 c11 -10 39 -64 63 -120 23 -57 44 -103 48 -103 3 0 23 49
44 109 28 79 44 111 60 119 19 9 15 11 -27 11 -44 1 -48 -1 -32 -12 18 -13 17
-16 -5 -85 -13 -40 -26 -72 -30 -72 -8 0 -59 124 -59 144 0 8 8 17 18 19 9 3
-9 5 -42 6 -56 1 -58 0 -38 -16z"/>
<path d="M2613 963 c15 -4 17 -18 17 -113 0 -95 -2 -109 -17 -113 -10 -3 7 -5
37 -6 42 0 51 2 38 10 -15 9 -18 26 -18 119 l0 110 -37 -1 c-21 -1 -30 -3 -20
-6z"/>
<path d="M3244 945 c-19 -29 -10 -65 17 -65 20 0 26 24 9 35 -33 21 10 52 56
41 22 -6 25 -11 22 -49 -3 -41 -4 -42 -48 -49 -24 -4 -53 -16 -63 -27 -22 -22
-25 -64 -7 -86 17 -20 79 -19 103 2 18 17 19 17 28 0 22 -39 81 -9 78 40 -1
12 -3 10 -8 -7 -4 -14 -15 -26 -24 -28 -15 -3 -17 7 -17 87 0 80 -2 93 -22
111 -33 30 -102 28 -124 -5z m96 -165 c-14 -26 -51 -41 -67 -28 -17 14 -16 63
1 77 8 7 27 16 43 20 25 7 28 5 31 -20 2 -16 -2 -38 -8 -49z"/>
</g>
</svg>
